<?xml version="1.0" encoding="UTF-8"?>
<svg id="Layer_1" data-name="Layer 1" xmlns="http://www.w3.org/2000/svg" xmlns:xlink="http://www.w3.org/1999/xlink" version="1.1" viewBox="0 0 1426.2 898">
  <defs>
    <style>
      .cls-1 {
        fill: #ffcdb0;
      }

      .cls-1, .cls-2, .cls-3, .cls-4, .cls-5, .cls-6, .cls-7, .cls-8, .cls-9, .cls-10, .cls-11, .cls-12, .cls-13, .cls-14, .cls-15, .cls-16, .cls-17, .cls-18, .cls-19, .cls-20, .cls-21, .cls-22, .cls-23, .cls-24, .cls-25, .cls-26, .cls-27, .cls-28, .cls-29, .cls-30 {
        stroke-width: 0px;
      }

      .cls-2 {
        fill: #693d31;
      }

      .cls-3 {
        fill: #f06ca8;
      }

      .cls-4 {
        fill: url(#linear-gradient);
      }

      .cls-5 {
        fill: url(#linear-gradient-11);
      }

      .cls-6 {
        fill: url(#linear-gradient-12);
      }

      .cls-7 {
        fill: url(#linear-gradient-13);
      }

      .cls-8 {
        fill: url(#linear-gradient-10);
      }

      .cls-9 {
        fill: url(#linear-gradient-17);
      }

      .cls-10 {
        fill: url(#linear-gradient-16);
      }

      .cls-11 {
        fill: url(#linear-gradient-19);
      }

      .cls-12 {
        fill: url(#linear-gradient-15);
      }

      .cls-13 {
        fill: url(#linear-gradient-18);
      }

      .cls-14 {
        fill: url(#linear-gradient-14);
      }

      .cls-15 {
        fill: url(#linear-gradient-20);
      }

      .cls-16 {
        fill: #3f3d56;
      }

      .cls-31 {
        stroke: #2f2e41;
        stroke-linejoin: round;
      }

      .cls-31, .cls-32 {
        fill: none;
      }

      .cls-17 {
        fill: #ff9187;
      }

      .cls-32 {
        stroke: #000;
        stroke-miterlimit: 10;
      }

      .cls-18 {
        fill: #f2f2f2;
      }

      .cls-33 {
        fill: #000;
        font-family: MyriadPro-Regular, 'Myriad Pro';
      }

      .cls-33, .cls-29, .cls-34 {
        isolation: isolate;
      }

      .cls-33, .cls-35 {
        font-size: 12px;
      }

      .cls-19 {
        fill: #2f2e41;
      }

      .cls-20 {
        fill: #ffd079;
      }

      .cls-21 {
        fill: url(#linear-gradient-4);
      }

      .cls-22 {
        fill: url(#linear-gradient-2);
      }

      .cls-23 {
        fill: url(#linear-gradient-3);
      }

      .cls-24 {
        fill: url(#linear-gradient-8);
      }

      .cls-25 {
        fill: url(#linear-gradient-9);
      }

      .cls-26 {
        fill: url(#linear-gradient-7);
      }

      .cls-27 {
        fill: url(#linear-gradient-5);
      }

      .cls-28 {
        fill: url(#linear-gradient-6);
      }

      .cls-29 {
        fill: #1ab1cf;
        opacity: .2;
      }

      .cls-30 {
        fill: #ffaf5a;
      }

      .cls-35 {
        fill: #231f20;
        font-family: Roca-Black, Roca;
        font-weight: 800;
      }
    </style>
    <linearGradient id="linear-gradient" x1="804.2" y1="597.7" x2="814.9" y2="479.4" gradientTransform="translate(0 898) scale(1 -1)" gradientUnits="userSpaceOnUse">
      <stop offset="0" stop-color="#ff9187"/>
      <stop offset="1" stop-color="#f06ca8"/>
    </linearGradient>
    <linearGradient id="linear-gradient-2" x1="327.8" y1="755.4" x2="325.2" y2="522.6" gradientTransform="translate(0 898) scale(1 -1)" gradientUnits="userSpaceOnUse">
      <stop offset="0" stop-color="#ff9187"/>
      <stop offset="1" stop-color="#f06ca8"/>
    </linearGradient>
    <linearGradient id="linear-gradient-3" x1="585.4" y1="772.6" x2="581.4" y2="562.4" gradientTransform="translate(0 898) scale(1 -1)" gradientUnits="userSpaceOnUse">
      <stop offset="0" stop-color="#ff9187"/>
      <stop offset="1" stop-color="#f06ca8"/>
    </linearGradient>
    <linearGradient id="linear-gradient-4" x1="1305.1" y1="348.4" x2="1221.3" y2="323.1" gradientTransform="translate(0 898) scale(1 -1)" gradientUnits="userSpaceOnUse">
      <stop offset="0" stop-color="#ff9187"/>
      <stop offset="1" stop-color="#f06ca8"/>
    </linearGradient>
    <linearGradient id="linear-gradient-5" x1="1188.8" y1="174.5" x2="1202.1" y2="174.5" gradientTransform="translate(0 898) scale(1 -1)" gradientUnits="userSpaceOnUse">
      <stop offset="0" stop-color="#ff9187"/>
      <stop offset="1" stop-color="#f06ca8"/>
    </linearGradient>
    <linearGradient id="linear-gradient-6" x1="299.9" y1="-138.9" x2="297.2" y2="-314.4" gradientTransform="translate(0 898) scale(1 -1)" gradientUnits="userSpaceOnUse">
      <stop offset="0" stop-color="#ff9187"/>
      <stop offset="1" stop-color="#f06ca8"/>
    </linearGradient>
    <linearGradient id="linear-gradient-7" x1="363" y1="-139.8" x2="360.4" y2="-315.4" gradientTransform="translate(0 898) scale(1 -1)" gradientUnits="userSpaceOnUse">
      <stop offset="0" stop-color="#ff9187"/>
      <stop offset="1" stop-color="#f06ca8"/>
    </linearGradient>
    <linearGradient id="linear-gradient-8" x1="406.7" y1="-140.5" x2="404.1" y2="-316.1" gradientTransform="translate(0 898) scale(1 -1)" gradientUnits="userSpaceOnUse">
      <stop offset="0" stop-color="#ff9187"/>
      <stop offset="1" stop-color="#f06ca8"/>
    </linearGradient>
    <linearGradient id="linear-gradient-9" x1="457.9" y1="-141.2" x2="455.2" y2="-316.8" gradientTransform="translate(0 898) scale(1 -1)" gradientUnits="userSpaceOnUse">
      <stop offset="0" stop-color="#ff9187"/>
      <stop offset="1" stop-color="#f06ca8"/>
    </linearGradient>
    <linearGradient id="linear-gradient-10" x1="524.6" y1="-142.3" x2="521.9" y2="-317.8" gradientTransform="translate(0 898) scale(1 -1)" gradientUnits="userSpaceOnUse">
      <stop offset="0" stop-color="#ff9187"/>
      <stop offset="1" stop-color="#f06ca8"/>
    </linearGradient>
    <linearGradient id="linear-gradient-11" x1="582" y1="-143.1" x2="579.3" y2="-318.7" gradientTransform="translate(0 898) scale(1 -1)" gradientUnits="userSpaceOnUse">
      <stop offset="0" stop-color="#ff9187"/>
      <stop offset="1" stop-color="#f06ca8"/>
    </linearGradient>
    <linearGradient id="linear-gradient-12" x1="633.1" y1="-143.9" x2="630.5" y2="-319.5" gradientTransform="translate(0 898) scale(1 -1)" gradientUnits="userSpaceOnUse">
      <stop offset="0" stop-color="#ff9187"/>
      <stop offset="1" stop-color="#f06ca8"/>
    </linearGradient>
    <linearGradient id="linear-gradient-13" x1="279.6" y1="-138.5" x2="277" y2="-314.1" gradientTransform="translate(0 898) scale(1 -1)" gradientUnits="userSpaceOnUse">
      <stop offset="0" stop-color="#ff9187"/>
      <stop offset="1" stop-color="#f06ca8"/>
    </linearGradient>
    <linearGradient id="linear-gradient-14" x1="352" y1="-139.6" x2="349.4" y2="-315.2" gradientTransform="translate(0 898) scale(1 -1)" gradientUnits="userSpaceOnUse">
      <stop offset="0" stop-color="#ff9187"/>
      <stop offset="1" stop-color="#f06ca8"/>
    </linearGradient>
    <linearGradient id="linear-gradient-15" x1="386.3" y1="-140.2" x2="383.6" y2="-315.7" gradientTransform="translate(0 898) scale(1 -1)" gradientUnits="userSpaceOnUse">
      <stop offset="0" stop-color="#ff9187"/>
      <stop offset="1" stop-color="#f06ca8"/>
    </linearGradient>
    <linearGradient id="linear-gradient-16" x1="421.1" y1="-140.7" x2="418.5" y2="-316.3" gradientTransform="translate(0 898) scale(1 -1)" gradientUnits="userSpaceOnUse">
      <stop offset="0" stop-color="#ff9187"/>
      <stop offset="1" stop-color="#f06ca8"/>
    </linearGradient>
    <linearGradient id="linear-gradient-17" x1="456.1" y1="-141.2" x2="453.4" y2="-316.8" gradientTransform="translate(0 898) scale(1 -1)" gradientUnits="userSpaceOnUse">
      <stop offset="0" stop-color="#ff9187"/>
      <stop offset="1" stop-color="#f06ca8"/>
    </linearGradient>
    <linearGradient id="linear-gradient-18" x1="506.7" y1="-142" x2="504" y2="-317.6" gradientTransform="translate(0 898) scale(1 -1)" gradientUnits="userSpaceOnUse">
      <stop offset="0" stop-color="#ff9187"/>
      <stop offset="1" stop-color="#f06ca8"/>
    </linearGradient>
    <linearGradient id="linear-gradient-19" x1="592.2" y1="-143.3" x2="589.5" y2="-318.9" gradientTransform="translate(0 898) scale(1 -1)" gradientUnits="userSpaceOnUse">
      <stop offset="0" stop-color="#ff9187"/>
      <stop offset="1" stop-color="#f06ca8"/>
    </linearGradient>
    <linearGradient id="linear-gradient-20" x1="673.3" y1="-144.5" x2="670.6" y2="-320.1" gradientTransform="translate(0 898) scale(1 -1)" gradientUnits="userSpaceOnUse">
      <stop offset="0" stop-color="#ff9187"/>
      <stop offset="1" stop-color="#f06ca8"/>
    </linearGradient>
  </defs>
  <path class="cls-29" d="M849.6,160.3h119.2v168.7c0,11-8.9,19.9-19.9,19.9h-99.2v-188.6h0Z"/>
  <rect class="cls-29" x="216.8" y="73.1" width="632.3" height="466"/>
  <path class="cls-29" d="M849.1,600.5c-1.8-40.7-9.2-80.9-22-119.5h0c-2.8-8.5-5.8-16.9-9.1-25.2-1.2-3.1-2.5-6.2-3.8-9.4-10.3-24.4-22.7-47.8-37.1-70-5.1-7.9-10.5-15.6-16.1-23.2-13.2-17.7-27.7-34.5-43.3-50.1-6.4-6.4-12.9-12.6-19.6-18.5-1-.9-1.9-1.7-2.9-2.6-24.1-21.1-50.4-39.5-78.4-55-.4-.2-.8-.4-1.2-.7-5.7-3.1-11.5-6.1-17.3-9-.6-.3-1.2-.6-1.8-.9-5-2.4-10.1-4.8-15.2-7.1-.8-.4-1.6-.7-2.5-1.1h0c-1.4-.6-2.9-1.2-4.3-1.9-.4-.2-.8-.3-1.1-.5h0c-51.8-21.8-107.3-33.6-163.4-34.8-3.6,0-7.2-.1-10.9-.1h-97.5c-7.6,0-15.1,1-22.4,3-.2,0-.3,0-.4.1-36.9,10.3-62.4,43.9-62.5,82.2v371c0,4.1,1.8,7.9,5,10.5h0c2.4,2,5.5,3.1,8.7,3.1h600.8c10.6,0,19.2-8.6,19.2-19.2s-.2-14.3-.5-21.4l-.4.3Z"/>
  <path class="cls-29" d="M848.6,498.5c-1.8-40.7-9.2-80.9-21.9-119.5h0c-2.8-8.5-5.8-16.9-9.1-25.2-1.2-3.1-2.5-6.2-3.8-9.4-10.3-24.4-22.6-47.8-37-70-5.1-7.9-10.5-15.6-16.1-23.2-13.2-17.7-27.6-34.5-43.2-50.1-6.4-6.4-12.9-12.6-19.6-18.5-1-.9-1.9-1.7-2.9-2.6-24-21.1-50.2-39.5-78.2-55-.4-.2-.8-.4-1.2-.7-5.7-3.1-11.5-6.1-17.3-9-.6-.3-1.2-.6-1.8-.9-5-2.4-10-4.8-15.1-7.1-.8-.4-1.6-.7-2.4-1.1h0c-1.4-.6-2.9-1.2-4.3-1.9-.4-.2-.8-.3-1.1-.5h0c-51.7-21.8-106.9-33.6-162.9-34.8-3.6,0-7.2,0-10.9,0h-97.2c-7.6,0-15.1,1-22.4,3-.1,0-.3,0-.4,0-36.8,10.3-62.2,43.9-62.3,82.2v371c0,4.1,1.8,7.9,5,10.5h0c2.4,2,5.5,3.1,8.6,3.1h599c10.6,0,19.1-8.6,19.1-19.2s-.2-14.3-.5-21.4v.3Z"/>
  <path class="cls-4" d="M877.7,370.1c0,50.4-30,68-67,68h-2.6c-1.7,0-3.4-.1-5.1-.2-7.8-.5-15.6-2.1-22.9-4.8-21.6-8.3-36.4-27.5-36.4-62.9s0-4.5.4-6.8c1.2-11.3,5.4-23.1,11.1-34.6,3.3-6.5,6.9-12.8,10.9-19,5.1-7.9,10.5-15.3,15.8-22,6.8-8.6,17.1-13.7,28-13.9h.4c11.4-.2,22.1,5,29.1,13.9,18.1,23.1,38.2,54.7,38.2,82.3h0Z"/>
  <path class="cls-19" d="M626,544.4c0,33.3-7.6,66.2-22.3,96.2H229.6c-7.3,0-13.2-5.9-13.2-13.2v-187.1c57.5-105.8,189.8-145,295.6-87.5,70.2,38.2,113.9,111.7,113.9,191.6h0Z"/>
  <path class="cls-16" d="M849.1,509.6v112.2c0,10.3-8.4,18.7-18.7,18.7H228.9c-7.3,0-12.5-6.6-12.5-13.9v-6.5c0-93.5,290.1-166.1,372.7-197,96.2-35.9,204.4,0,259.9,86.5h0Z"/>
  <circle class="cls-30" cx="753.3" cy="232.6" r="54.3"/>
  <path class="cls-22" d="M466.5,312.5c0,7.5-.3,14.7-.9,21.6-8.1,89.4-67.6,121.4-139.7,121.4s-3.6,0-5.4,0c-3.6,0-7.2-.2-10.7-.5-32.4-2.3-61.4-11.8-83.3-31.1-3.7-3.3-7.2-6.9-10.5-10.6-19.3-22.6-30.8-55.3-30.8-100.6,0-73.7,68-161.3,109.4-207.8,7.7-8.7,18.6-13.7,30.2-14h.4c12.2-.2,23.8,4.9,31.9,14,18.9,21.1,36.5,43.3,52.7,66.5,30.1,43.6,56.8,95.1,56.8,141.3v-.2Z"/>
  <polygon class="cls-16" points="320.7 443.9 372.1 374.9 320.5 451.4 320.4 459.3 319.3 527.2 318.8 552 304.6 552 305.6 534.1 309.7 458.9 315.3 357.3 315.2 356.5 315.3 356.3 315.4 355.5 315.8 346.7 264.1 270 316 339.5 316.1 341.6 320.3 264.8 278.4 189.8 276 185.5 278.9 189.7 320.9 251.3 321.5 228.4 322.6 186.8 324.7 109.7 325.1 109.7 324.7 186.8 324.5 217.6 351.8 186.8 368.6 167.9 354.7 186.8 324.3 228.4 323.2 297.2 364.3 231.2 323 307.3 322.3 345.5 382.1 253.7 326.7 350.8 322.1 358.9 320.7 443.9"/>
  <path class="cls-23" d="M695.9,263.9c0,6.3-.3,12.4-.8,18.1-6.8,71.4-54.5,96.9-112.3,96.9s-2.9,0-4.3,0c-2.9,0-5.8-.2-8.6-.4-8.5-.5-16.8-1.8-25.1-3.9-20.4-5.1-38.2-14.9-51.3-30.8-15-18.1-23.9-44.1-23.9-79.9s11-55.4,26.1-82.4c16.5-29.6,38-57.1,55.5-77.3,7.7-9,18.8-14.2,30.6-14.5h.4c12.3-.2,24.1,5.1,32.2,14.5,33.5,38.8,81.6,104.2,81.6,159.8h-.1Z"/>
  <polygon class="cls-16" points="584.6 373.2 543.3 319.4 584.7 379.1 584.9 385.3 585.3 412.2 585.6 430.4 586.1 457.7 597.5 457.7 596.2 433.8 594.4 402.4 593.4 384.9 589 305.6 589 305 589 304.9 588.5 297.4 630.1 237.5 588.4 291.8 588.3 293.4 584.9 233.4 590.1 224.5 590.1 224.5 620.5 171.6 584.5 222.9 581.5 116.3 581.1 116.3 581.6 196.6 546.2 157.8 581.7 205.1 582.1 227.7 582.7 258.7 567 234.3 549.6 207.2 565.2 235.1 582.8 266.6 583.3 296.5 547.9 243.5 535.3 224.8 546.7 244.1 583.5 306.9 584.6 373.2"/>
  <path class="cls-16" d="M808.3,441.9l24.5-32-24.5,35.5v3.7l-.8,39.5v3.5h-6.8l.7-11.9,1.8-31.3,2.6-47.1v-.4h0l.3-4.5-24.6-35.6,24.7,32.2v.9l2.1-35.6-21.1-36.8,21.3,30.5,1.6-57h.4l-.2,41.4,21-23.1-21.1,28.1-.6,31.9,19.6-30.6-19.7,35.3-.3,17.7,28.4-42.6-28.5,48.8-.7,39.4h-.1Z"/>
  <path class="cls-17" d="M372.7,526.1c-3.4,5.4-7.7,5.3-11.7,2.8s-6-6.4-2.6-11.7,14.8-7.7,14.8-7.7c0,0,2.9,11.3-.5,16.7h0Z"/>
  <path class="cls-17" d="M249.6,522.9c4.5-4.5,8.7-3.4,12,0s4.4,7.5,0,12-16.2,4.3-16.2,4.3c0,0-.3-11.7,4.2-16.2Z"/>
  <path class="cls-17" d="M151.6,449.2c6.3-.4,8.8,3.2,9.1,7.9s-1.7,8.5-8,8.9-14.9-7.5-14.9-7.5c0,0,7.5-8.9,13.9-9.3h-.1Z"/>
  <path class="cls-3" d="M63,545.7c4.3-4.7,8.6-3.8,12-.7s4.7,7.3.5,12-15.9,5-15.9,5c0,0-.8-11.6,3.5-16.3h0Z"/>
  <path class="cls-3" d="M184.5,559.2c-3.4,5.4-7.7,5.3-11.7,2.8s-6-6.4-2.6-11.7,14.8-7.7,14.8-7.7c0,0,2.9,11.3-.5,16.7h0Z"/>
  <path class="cls-17" d="M624.3,438.2c5.7-2.8,9.3-.4,11.4,3.7s1.8,8.5-3.9,11.4-16.7-1.1-16.7-1.1c0,0,3.5-11.1,9.2-14Z"/>
  <path class="cls-17" d="M583.8,482.6c-5.2-3.6-4.9-8-2.2-11.8s6.6-5.7,11.8-2,7,15.2,7,15.2c0,0-11.4,2.3-16.7-1.3h.1Z"/>
  <path class="cls-17" d="M509.7,387.2c3.7-1.5,5.9.2,7.1,2.9s.7,5.5-3,7-10.5-1.5-10.5-1.5c0,0,2.7-6.9,6.4-8.4h0Z"/>
  <path class="cls-17" d="M534.2,418.4c-3.8,1.2-5.9-.6-6.8-3.5s-.3-5.5,3.6-6.8,10.4,2.3,10.4,2.3c0,0-3.3,6.7-7.1,7.9h-.1Z"/>
  <path class="cls-17" d="M534.2,489c-3.4,5.4-7.7,5.3-11.7,2.8s-6-6.4-2.6-11.7,14.8-7.7,14.8-7.7c0,0,2.9,11.3-.5,16.7h0Z"/>
  <path class="cls-17" d="M309.5,571.9c5.3-3.5,9.2-1.6,11.8,2.3s2.8,8.2-2.5,11.8c-5.3,3.5-16.7,1-16.7,1,0,0,2-11.5,7.3-15h.1Z"/>
  <path class="cls-29" d="M1303.9,593.1c0,138.5-62.9,247.8-140.4,250.9-101,3.9-233.1-96.8-140.4-250.9,71.4-118.7,62.8-250.9,140.4-250.9s140.4,112.3,140.4,250.9Z"/>
  <path class="cls-21" d="M1321.4,571.8c-10.4,12.9-24.6,28.2-40,38.3-7.3,4.8-15,8.4-22.6,10-40,8.3-58.9-12.5-65-41.8,0-.7-.3-1.4-.4-2-.3-1.4-.5-2.7-.7-4.1-3.7-26.9,6.7-50.5,43.9-58.2,11.5-2.4,24.8-.6,38,3.2,13.9,4,27.5,10.2,38.7,16,6.6,3.4,11.4,9.6,13.1,16.9v.3c1.7,7.6-.2,15.5-5,21.5h0Z"/>
  <path class="cls-16" d="M1280.8,559.4l-23.3,4.5,24.1,8.3,5.1,1.8-5.1-1.4-28.1-7.9-15.1,2.9,40.9,15-46.1-14-33.6,6.4,31.2,13.7-34.2-13.2-3.1.6-14,2.7h0l-14.8,2.8-5.6,1.1-2.2.4-1.1-5.4,2.3-.4,4.7-.7,17.1-2.6,13.1-2,40.4-6.3h.3l3.8-.6,26.1-25.8-23.3,25.3-.8.2,30.5-4.7,10-8.4,17.7-14.8-17.4,17.4-4.9,4.9,5.3-1,45.7-8.3v.3l-37.6,7.6,23.1,12.5-27.3-11.7-3.9.7h.1Z"/>
  <path class="cls-1" d="M1184.3,473.3h0c-.3-1.3-.9-2.5-1.8-3.5-1.5-1.7-3.7-2.8-5.9-2.9h-.3c-.9,0-1.7.1-2.6.4-3.2,1-5.5,3.8-5.8,7.1l-.5,10.1-1.5,30.7-.2,4-2.4,49.5c-2.5,2.2-3.8,5.4-3.6,8.7,0,1.7.7,3.3,1.5,4.7,1,1.6,2.5,2.9,4.2,3.8,1.5.7,3.1,1.1,4.7,1.1,4.4,0,8.3-2.8,9.8-6.9v-.2h0c.6-1.8.7-3.8.3-5.7-.2-.8-.5-1.5-.8-2.3-.2-.5-.5-.9-.8-1.3l3.2-53.3,1.9-32.1.5-8.5v-.4c0-.4,0-.9,0-1.3h0c0-.6,0-1.1-.2-1.7h.3Z"/>
  <path class="cls-19" d="M1185.1,481c0-1.1,0-2.2-.3-3.2,0-.3,0-.7-.2-1-1.2-4.2-4-7.8-7.9-9.8-3.2-1.7-6.8-2.3-10.4-1.6-10.1,1.8-16.1,5.2-17.9,10-1.3,3.4-.6,7.9,1,12.7h0c1.4,4,3.2,8,5.3,11.7.4.7.8,1.4,1.2,2.1,2.6,4.5,5.4,8.9,8.5,13.1h0c0,0,1.7.4,1.7.4l2.1.3,14,1.8h.9c0,0,0-.3,0-.3,1.5-12,2.2-24,2.1-36.1h0Z"/>
  <ellipse class="cls-16" cx="1123.8" cy="838.4" rx="125" ry="13.4"/>
  <polygon class="cls-1" points="1114.8 819 1101.5 819 1095.2 767.9 1114.8 767.9 1114.8 819"/>
  <path class="cls-19" d="M1121.6,839.9l-1.2-14.9-1-12.6-4.5-.3-14.2-.8h-2.3c0,0,0,8.9,0,8.9l-7.7,5.3-4.1,2.8-8.2,5.7c-2.6,1.8-3.2,5.3-1.4,7.8,1,1.5,2.8,2.4,4.6,2.4h25l3.5-7.3.8-1.6.4,2h0l1.3,6.9h9.4l-.4-4.3h0Z"/>
  <polygon class="cls-1" points="1175.8 808.5 1163.4 813.2 1139.3 767.6 1157.7 760.7 1175.8 808.5"/>
  <path class="cls-19" d="M1190.2,827.1l-12.6-26.3-4.3,1.3-13.6,4.2-2.2.7,3.2,8.4-13.8,19.9c-1.8,2.6-1.1,6,1.4,7.8.3.2.7.4,1.1.6,1.2.5,2.5.5,3.7,0h0c0,0,.2,0,.4,0l23.3-8.8.8-8.6v-1.2c0,0,.9,1.2.9,1.2l4,6.5,8.8-3.3-1.2-2.5h0Z"/>
  <path class="cls-27" d="M1202.1,725.1c.5,5-2.3,7-5.9,7.4s-6.8-1.1-7.3-6.1,5.5-11.9,5.5-11.9c0,0,7.2,5.7,7.7,10.6h0Z"/>
  <path class="cls-17" d="M1175.3,662.9c-2.7,4.2-6.1,4.1-9.2,2.2s-4.7-5-2-9.2,11.6-6.1,11.6-6.1c0,0,2.2,8.9-.4,13.1Z"/>
  <path class="cls-17" d="M904.6,435.3c-2.7,4.2-6.1,4.1-9.2,2.2s-4.7-5-2-9.2,11.6-6.1,11.6-6.1c0,0,2.2,8.9-.4,13.1h0Z"/>
  <path class="cls-17" d="M982,507.9c-5.7,2.6-9.2.1-11.1-4.1s-1.5-8.5,4.2-11.1,16.4,1.7,16.4,1.7c0,0-3.8,10.9-9.5,13.5h0Z"/>
  <path class="cls-3" d="M1011.6,619.7c4.9,3.9,4.3,8.2,1.4,11.8s-6.9,5.1-11.8,1.2c-4.9-3.9-5.9-15.4-5.9-15.4,0,0,11.4-1.5,16.3,2.4Z"/>
  <path class="cls-19" d="M1141.7,684.1s58.1,91.4,51.7,95.5-58.5,20.2-63.2,17-8.4-108.4-8.4-108.4l20-4.1h0Z"/>
  <path class="cls-19" d="M1106.3,542.9c8.5.3,43.6,5.4,42.8,6.7-.8,1.2-1.6,2.3-2.5,3.3,0,0,1.8,8.1,1,8.9s15.2,19.1,5.9,58.3c-9.3,39.2-8.3,66.4-8.3,66.4,0,0,3.8,115.1-7,117.4-10.8,2.3-53.1.8-55.1-3.8s6.1-145.6,6.1-145.6c0,0,.9-70.9,3-79.6,2.1-8.6,8.9-32.1,14.1-32h0Z"/>
  <circle class="cls-1" cx="1150.6" cy="416.6" r="26.7"/>
  <path class="cls-16" d="M1174.3,455.3c3.8,3.8,20.1,19.3,2.3,46.8-17.7,27.5-29,47.4-29,47.4l-44.1-5.2,6.8-26.8s-3.3-21.2,8-31.7,23.7-27.8,23.7-27.8l6.4-1.2s22.2-5.3,26-1.5h-.1Z"/>
  <path class="cls-1" d="M1161,494.9s-62.3,48-66.3,31.1c-2.6-10.9,2.7-52.1,4.4-69.6,0,0,8.5-6.8,10.7-1.3s-3.1,40.1,2.3,44.5c0,0,19.3-18.6,23.3-18.3s25.6,13.6,25.6,13.6h0Z"/>
  <path class="cls-19" d="M1174.3,465s-8.5,39.3-33.4,45.7l-29.1-11.8s37-39.4,49.7-39.9c12.7-.4,12.7,6,12.7,6h.1Z"/>
  <circle class="cls-1" cx="1101.4" cy="452.5" r="10.2"/>
  <path class="cls-20" d="M1631.1,175.7c0-8.4-.2-16.9-2.1-25.1s-5.9-16-12.3-20.9c-6.4-4.8-15.6-6-22.2-1.5-4.9-6.3-13.4-8.8-21-7.1s-14,7.1-18.5,13.8-7.2,14.6-9,22.6c-.6,2.8-.9,6.5,1.4,8.1,1.8,1.3,4.2.5,6.2-.3,5.5-2.2,11-4.4,16.6-6.7,5.6,7.6,13.6,14.6,12.5,24.2-1.1,9.6-7.5,19.8-10.9,28.8,4.7-1.7,9.5-3.4,14.2-5.1,1.5-2.5,5.3-6.5,5-9.5,1,2.2,1.8,4.5,2.1,6.9h0l26.4-9.5c3.1-1.1,6.4-2.4,8.6-5.1,3-3.7,3.1-9,3-13.8v.2Z"/>
  <g class="cls-34">
    <text class="cls-33" transform="translate(1574.3 75.8)"><tspan x="0" y="0">(26, 177, 207)</tspan></text>
  </g>
  <g class="cls-34">
    <text class="cls-33" transform="translate(1577.6 55.5)"><tspan x="0" y="0">(121, 5, 102)</tspan></text>
  </g>
  <g class="cls-34">
    <text class="cls-33" transform="translate(1573.2 32.1)"><tspan x="0" y="0">(168, 32, 156)</tspan></text>
  </g>
  <path class="cls-31" d="M237.3,43.4h590.9c11.5,0,20.9,9.4,20.9,20.9v556c0,11.5-9.4,20.9-20.9,20.9H229.4c-7.2,0-13-5.8-13-13V64.2c0-11.5,9.4-20.9,20.9-20.9h0Z"/>
  <path class="cls-1" d="M1142.6,456.7c-.5.6-1.1,1.3-.8,2.1.3,1.1,2.1,1.4,3.5,1.5,8.9.6,18.1-.5,26.3-3.3.4-.1.8-.3,1.1-.5,1-.8,0-2.2-.7-3.2-3.7-4.3-5.3-9.6-4.6-14.8,0-.6.2-1.3-.2-1.9-.5-.7-1.7-.8-2.7-.9-5-.3-15.5.9-17.2,5-.9,2.2,0,5.6-.6,8s-2.1,5.5-4.1,7.9h0Z"/>
  <path class="cls-2" d="M1164.4,431.3c2.8,1,3.6,4.5,4,7.4,3.4-2.4,7-5,8.9-8.7,1.7-3.3,1.9-7.3,1.8-11,0-3.8-.3-7.7-1.7-11.2-1.5-3.9-4.3-7.1-7.1-10.2-1.3-1.5-2.6-2.9-4.2-4.1-1.9-1.4-4.1-2.3-6.4-3-7.2-2.2-15.2-2.6-22,.6-3.9,1.8-7.2,4.7-10.2,7.9-.9.9-1.7,1.9-2,3.2s.3,2.8,1.5,3.1c5.1,8.7,13.5,15.1,23.5,16.6.5,0,1,0,1.3-.3.3-.4.2-.9,0-1.4,0-1.8,2.4-3.1,3.9-2,1.2.9,1.3,2.6,1.1,4s-.7,2.9-.4,4.4c.4,1.6,1.7,2.8,3.2,3.5s3.1.6,4.6,1.2h0Z"/>
  <path class="cls-2" d="M1162.6,386.9c.5-.2,1-.3,1.5-.4,1.1-.3,2.1-.9,3.2-1.2,1.1-.3,2.3-.2,3.5-.1,1.3.1,2.7.2,4,.3,2,.2,4.1.4,6,1.2,3.1,1.4,5.2,4.7,5.1,8.1,0,1.7-.5,3.4.2,4.9.3.7.8,1.4,1.2,2.1.3.7.4,1.5.5,2.3,0,3.3-1.6,6.8-4.5,8.3s-7.1.6-8.8-2.3c-.8-1.4-1-3-1.5-4.5-.7-1.9-1.9-3.7-3.1-5.3-2-2.9-4-5.6-6.4-8.1s-3.5-4-.7-5.4h-.2Z"/>
  <path class="cls-2" d="M1183.2,398.5c2.9-1.3,5.5-3.5,7.1-6.3-.4,1.9-1.1,3.8-2.4,5.2s-3.5,2.2-5.3,1.4c0-.4.3-.7.7-.9"/>
  <path class="cls-2" d="M1192.1,397.6c-.3,1.4-1.5,2.5-2.9,3-1.9.6-4.4.1-6-1.1,1.1-.7,8.6-.2,8.9-1.9Z"/>
  <path class="cls-19" d="M240.2,36.1h585.6c12.9,0,23.3,10.4,23.3,23.3v24.9H215.7v-23.7c0-13.5,11-24.5,24.5-24.5Z"/>
  <path class="cls-19" d="M834,641H229.9c-7.7,0-13.9-6.2-13.9-13.9v-34.3h633.2v33c0,8.4-6.8,15.2-15.2,15.2h0Z"/>
  <circle class="cls-18" cx="248.2" cy="60.1" r="8.7"/>
  <circle class="cls-18" cx="274.2" cy="60.1" r="8.7"/>
  <circle class="cls-18" cx="300.5" cy="60.1" r="8.7"/>
  <path class="cls-19" d="M673.8,108.9h278.1c9.3,0,16.9,7.6,16.9,16.9v34.5h-312.8v-33.6c0-9.8,8-17.8,17.8-17.8h0Z"/>
  <circle class="cls-18" cx="691.8" cy="136.2" r="8.7"/>
  <circle class="cls-18" cx="717.8" cy="136.2" r="8.7"/>
  <circle class="cls-18" cx="744.1" cy="136.2" r="8.7"/>
  <rect class="cls-32" x="655.9" y="108.9" width="312.8" height="240" rx="17.8" ry="17.8"/>
  <ellipse class="cls-1" cx="1108.3" cy="441.1" rx="2.1" ry="11.4" transform="translate(-11.9 31.1) rotate(-1.6)"/>
  <g>
    <path class="cls-28" d="M333.9,1086.9c0,14.3-11.8,25.6-33.5,25.6h-28.7c-4.7,0-6.5-.9-6.5-3.5,0-6.6,7.6-1.8,7.6-17v-36.2c0-15.2-7.6-10.4-7.6-17s1.8-3.5,6.5-3.5h24.8c16.2,0,28.9,3.9,29.1,16.7.1,6.5-3.3,11.5-9.6,14.1,11.9,2.9,17.9,10.8,17.9,20.8h0ZM290.9,1060.6c0,2.8,3.4,2.5,5.4,2.5,7.4,0,11.5-2.9,11.5-8.7s-5-11.2-13.1-11.2-3.7.8-3.7,3.1v14.3h0ZM314.1,1090.4c0-10-6.8-18.9-19.3-18.9s-3.9.8-3.9,3.2v22.1c0,5.4,1.3,7.7,9.2,7.7s14-4.5,14-14.1h0Z"/>
    <path class="cls-26" d="M385.7,1068.9c0,5.1-2.5,8.2-5.8,8.2-5.8,0-5.5-6.2-11-6.2s-6.6,3.5-6.6,10.7v15.2c0,10,5.4,7.3,5.4,12.6s-1.9,3.1-5.1,3.1h-17.9c-3.3,0-5.3-.8-5.3-3.2,0-5.2,5.5-2.4,5.5-12.5v-20.4c0-2.8-1.7-4.4-3.4-6-1-.8-2.1-1.7-2.1-3.4s1-2.9,3.6-4.1c4.3-2,12.7-4.4,14.6-4.5,2,0,2.8,1.3,2.8,3.8v5.4c4.4-6.6,10.1-9.2,15-9.2s10.4,4.3,10.4,10.5h-.1Z"/>
    <path class="cls-24" d="M397.2,1077.4c0-6.6-5.2-6.4-5.2-9.7s1-2.5,3.6-3.8c4.4-2.1,14.5-5.4,16.3-5.4s2.8,1.3,2.8,3.7v15.1c-.1,0-.1,19.4-.1,19.4,0,10,5.4,7.3,5.4,12.6s-1.9,3.1-5.1,3.1h-17.8c-3.4,0-5.4-.8-5.4-3.2,0-5.2,5.5-2.4,5.5-12.5v-19.4h0ZM394.9,1046.2c0-5.7,6.3-11.8,12.6-11.7,4.4,0,7.9,3.2,7.9,7.5-.1,6.2-6.6,11.5-13,11.5s-7.6-3.4-7.5-7.3Z"/>
    <path class="cls-25" d="M481.7,1053l-.2,41.8c0,7.9,6.4,6.5,6.4,9.8s-1.2,2.9-4,4.4c-3.5,1.8-10.7,4.2-14,4.2s-4.7-1.8-5.1-6.8v-1c-3.5,4.7-8.9,8.4-17.3,8.1-12.1-.3-21.3-9.7-21.3-24.1s15.9-31,28.1-31,7.3.8,9.9,2v-7.4c0-6.5-5.2-6.4-5.2-9.7s1-2.5,3.6-3.8c4.4-2.1,14.5-5.4,16.3-5.4s2.8,1.3,2.8,3.7v15.1h0ZM464.3,1091.4v-7.2c-.2-4.6-.9-8.6-1.9-11-2-4.7-5.4-7.1-9.5-7.1-6.5,0-10.3,6-10.3,15.8s5.4,20.7,12.7,20.7,8.4-4.6,8.9-11.2h0Z"/>
    <path class="cls-8" d="M552.4,1115.7c0,12.3-13.7,20-32.5,20s-25.3-3.6-25.3-13,2.5-6.8,6.7-8.5c-4.2-2-6.8-5.3-6.8-9.7s2.6-7.9,8.5-10.8c-4.7-2.9-7.6-7.5-7.6-13.5,0-11.4,11.1-21.3,26.1-21.7h3.5c2.1,0,3.3.3,5.2.3s6.2-.8,10.7-5.7c1.3-1.7,2.9-2.8,5.1-2.8s4.9,2.1,4.9,5c0,5.4-6,7.8-11.2,8.5,3.7,3.2,6,7.7,6,13.2,0,11.7-10.4,20.2-25.3,20.6-4.1,0-7.8-.3-11.2-1.3-1.1.9-1.8,2.1-1.8,3.3,0,3.1,3.3,4,8.2,4s16.2-1.2,21.4-1.2c10,0,15.6,5.5,15.6,13.3h-.2ZM537.3,1121.2c0-2.3-1.5-4.1-5.5-4-6.7,0-11.5.8-18.1.6-2.8,0-5.5.9-5.5,4.1s5.7,6.4,14.8,6.4,14.3-3,14.3-7.1ZM511.9,1075c0,8.2,3.1,16.1,10.1,16.1s7-3.6,7-10-3.1-15.9-9.9-15.9-7.2,4.2-7.2,9.8h0Z"/>
    <path class="cls-5" d="M607.7,1097.5c-2.1,6.5-11.6,16.1-26.7,16.1s-26.5-10.7-26.5-26,13.9-29.1,28.8-29.1,21.3,8.5,22.6,17.9c.2,1.7-.7,3.3-2.5,4.2-10.9,5.3-18.5,8.5-29.3,12.7,2.3,4.3,6.8,8.2,14.6,8.2s11.5-3.3,15.4-7.1c2.4-2.3,4.7-.2,3.6,3.2h0ZM570.5,1078.9c0,2.3.4,5.3,1,7.1,5.1-1.8,10.3-3.6,15.1-6,1.9-.9,3.7-1.5,2.8-4.9-1.8-6.2-6.6-9.8-11.6-8.5-4.6,1.1-7.3,5.7-7.3,12.2h0Z"/>
    <path class="cls-6" d="M652.9,1101.3c-1.8,5.5-7.8,12.2-17.6,12.2s-16.9-6.4-16.9-18.3v-6.9c0-8.3,0-15.8.3-21h-2.4c-3.3,0-4.2-1.1-4.2-3.1s.7-3.3,2-4.5c4.1-4,10-8.7,15-11.5,2.9-1.7,4-1.8,4.6-1.8,1.5,0,2.8,1.7,2.6,3.3-.3,3.2-.4,6.4-.6,9.7h10.9c2.1,0,4,.8,3.3,4.4s-2.6,4.3-5.1,4.2l-9.3-.3v20.5c0,11,1.7,13.5,6.1,13.5s5.3-1.2,7.7-3c2.3-1.5,4.2,0,3.4,2.5h.2Z"/>
    <path class="cls-7" d="M330.4,1146.7c3.9,0,6.3.7,6.3,3.2,0,4.3-6.4,3.5-9.2,11.5l-20.1,58.7c-.6,1.7-1.8,3.3-7,4.1-5.8,1-7.6.3-8.4-2.1l-14.6-43.2-13.9,41.4c-.5,1.7-1.8,3.2-6.9,4-5.4.8-7.2.3-8.1-2.1l-21.2-60.4c-2.9-8.3-8.2-7.3-8.2-11.6s2-3.3,5.2-3.3h20.1c3.4,0,5.4.8,5.4,3.3,0,4.3-5.7,3.6-3.1,11.7l13.6,41.5,13-36.6-1.4-4.9c-2.6-8.4-7.9-7.4-7.9-11.7s1.9-3.3,5.2-3.3h20.1c3.4,0,5.4.8,5.4,3.3,0,4.3-5.7,3.6-3.3,11.7l12.6,40.8,13.7-41.1c2.9-8.6-3.2-7.2-3.2-11.5s2.4-3.2,5.5-3.2h10.4v-.2Z"/>
    <path class="cls-14" d="M340.8,1188.8c0-6.6-5.2-6.4-5.2-9.7s1-2.5,3.6-3.8c4.4-2.1,14.5-5.4,16.3-5.4s2.8,1.3,2.8,3.8v15.1c-.1,0-.1,19.4-.1,19.4,0,10,5.4,7.3,5.4,12.6s-1.9,3.1-5.1,3.1h-17.8c-3.4,0-5.4-.8-5.4-3.2,0-5.2,5.5-2.4,5.5-12.5v-19.4h0ZM338.5,1157.6c0-5.7,6.3-11.8,12.6-11.7,4.4,0,7.9,3.2,7.9,7.5-.1,6.2-6.6,11.5-13,11.5s-7.6-3.4-7.5-7.3Z"/>
    <path class="cls-12" d="M375.2,1164.5c0-6.6-5.2-6.4-5.2-9.7s1-2.5,3.6-3.7c4.4-2.1,14.5-5.4,16.2-5.4s2.9,1.3,2.9,3.8v15.1c-.1,0-.1,43.8-.1,43.8,0,10,5.4,7.3,5.4,12.6s-1.9,3.1-5.1,3.1h-17.9c-3.3,0-5.3-.8-5.3-3.2,0-5.2,5.5-2.4,5.5-12.5v-43.8h0Z"/>
    <path class="cls-10" d="M410.1,1164.5c0-6.6-5.2-6.4-5.2-9.7s1-2.5,3.6-3.7c4.4-2.1,14.5-5.4,16.2-5.4s2.9,1.3,2.9,3.8v15.1c-.1,0-.1,43.8-.1,43.8,0,10,5.4,7.3,5.4,12.6s-1.9,3.1-5.1,3.1h-17.9c-3.3,0-5.3-.8-5.3-3.2,0-5.2,5.5-2.4,5.5-12.5v-43.8h0Z"/>
    <path class="cls-9" d="M444.8,1188.8c0-6.6-5.2-6.4-5.2-9.7s1-2.5,3.6-3.8c4.4-2.1,14.5-5.4,16.3-5.4s2.8,1.3,2.8,3.8v15.1c-.1,0-.1,19.4-.1,19.4,0,10,5.4,7.3,5.4,12.6s-1.9,3.1-5.1,3.1h-17.8c-3.4,0-5.4-.8-5.4-3.2,0-5.2,5.5-2.4,5.5-12.5v-19.4h0ZM442.5,1157.6c0-5.7,6.3-11.8,12.6-11.7,4.4,0,7.9,3.2,7.9,7.5-.1,6.2-6.6,11.5-13,11.5s-7.6-3.4-7.5-7.3Z"/>
    <path class="cls-13" d="M535,1216.7c0,4.2-6.9,8.1-12.4,8.1s-8.3-2.3-10.3-7.9c-5.6,5.7-13,7.9-19.6,7.9-11.7,0-19.7-6.7-19.7-15.9s9.2-18.3,25.9-18.3,3.7.2,7.3.5c-1.9-6-4.5-11-12-11s-9,2.1-12.7,4.1c-2.1,1.3-4.7-.3-3-3.4,2.9-5,11.5-10.9,22.3-10.9s19,10.7,21.6,19.6l5.6,19.2c1.1,3.9,2.3,6.1,5,6,1.2,0,2,.8,2,2.1h0ZM510.2,1208.1c-.2-1.5-1.2-4.3-2.3-7.6-.9-2.5-3.6-3.6-7.3-3.6-7,0-11.3,3.6-11.3,9s4.4,10.1,11,10.1,10.7-3.6,9.8-7.9h0Z"/>
    <path class="cls-11" d="M635.7,1210.9c1.4,6.7,5.7,5.7,5.7,9.9s-1.9,3.1-5.1,3.1h-17.2c-3.4,0-5.4-.8-5.4-3.2,0-3.9,5.8-3.8,4.3-10.9l-3.5-17c-1.2-6.1-2.4-12-8.8-11.9-4.7,0-9.2,4.3-9.2,12.5v14.9c0,10,5.4,7.3,5.4,12.6s-1.9,3.1-5.1,3.1h-17.8c-3.4,0-5.4-.8-5.4-3.2,0-5.2,5.5-2.4,5.5-12.5v-14c0-7.3-1-13.8-8-13.7-5.1,0-10,5-10,12.8v14.9c0,10,5.4,7.3,5.4,12.6s-1.9,3.1-5.1,3.1h-17.9c-3.3,0-5.3-.8-5.3-3.2,0-5.2,5.5-2.4,5.5-12.5v-20.4c0-2.8-1.7-4.4-3.4-6-1-.8-2.1-1.7-2.1-3.4s1-2.9,3.6-4.1c4.3-2,12.7-4.4,14.6-4.5,2,0,2.8,1.3,2.8,3.7v6.1c4.4-6.5,10.9-9.8,17.9-9.8s14.2,3.6,17.1,9.7c4.1-6.3,10.4-9.7,17.4-9.7,13.8,0,17.2,9.2,20.1,22.5l4,18.5Z"/>
    <path class="cls-15" d="M649.8,1220.3c-1.9-4.5-3.2-7.8-4-11.2-.7-2.9,0-4.2,1.4-4.9,1.9-1,3.9.4,6.8,3,6.4,6,12.7,10.9,19.4,10.9s5-1.9,5-4.3c0-3.5-5.4-6.5-15.3-10.8-7.9-3.6-15.6-8-15.6-17.3s10.1-15.8,18.8-15.8,10.3,1.5,13.7,1.7c2.5,0,2.9-1.7,5.1-1.7s2.8,1.1,4.7,4.6c1.3,2.5,1.9,3.9,2.9,6.4,1.3,3.5.7,5.2-.9,5.8-2.2,1.1-4.3-.8-7.7-3.2-4.3-3-10-6.5-14.7-6.5s-5.5,2.2-5.5,4.2c0,3.3,4.3,5.6,12.8,9.4,12.4,5.6,19.2,10.1,19.2,18s-9.7,16.4-21.1,16.4-13.5-2.3-15.9-2.3-2.2,2.3-4.4,2.3-3.2-1-4.7-4.8h0Z"/>
  </g>
  <text class="cls-35" transform="translate(-340.9 287)"><tspan x="0" y="0">Bridget</tspan><tspan x="-4.9" y="14.4">Williams</tspan></text>
</svg>