<?xml version="1.0" encoding="UTF-8"?>
<svg id="Layer_1" data-name="Layer 1" xmlns="http://www.w3.org/2000/svg" version="1.1" viewBox="0 0 1293.9 898">
  <defs>
    <style>
      .cls-1 {
        fill: #2f2e41;
      }

      .cls-1, .cls-2, .cls-3, .cls-4, .cls-5, .cls-6, .cls-7 {
        stroke-width: 0px;
      }

      .cls-2 {
        fill: #693d31;
      }

      .cls-3 {
        fill: #c54f8f;
      }

      .cls-4 {
        fill: #ffab71;
      }

      .cls-8 {
        fill: #000;
        font-family: MyriadPro-Regular, 'Myriad Pro';
        font-size: 12px;
      }

      .cls-5 {
        fill: #3f3d56;
      }

      .cls-6 {
        fill: #ffcdb0;
      }

      .cls-7 {
        fill: #1ab1cf;
        opacity: .2;
      }

      .cls-9 {
        fill: none;
        stroke: #2f2e41;
        stroke-linejoin: round;
        stroke-width: 1px;
      }
    </style>
  </defs>
  <path class="cls-7" d="M745,563.8c-1.8-40.7-9.2-80.9-22-119.5,0,0,0,0,0,0-2.8-8.5-5.8-16.9-9.1-25.2-1.2-3.1-2.5-6.2-3.8-9.4-10.3-24.4-22.7-47.8-37.1-70-5.1-7.9-10.5-15.6-16.1-23.2-13.2-17.7-27.7-34.5-43.3-50.1-6.4-6.4-12.9-12.6-19.6-18.5-1-.9-1.9-1.7-2.9-2.6-24.1-21.1-50.4-39.5-78.4-55-.4-.2-.8-.4-1.2-.7-5.7-3.1-11.5-6.1-17.3-9-.6-.3-1.2-.6-1.8-.9-5-2.4-10.1-4.8-15.2-7.1-.8-.4-1.6-.7-2.5-1.1,0,0,0,0,0,0-1.4-.6-2.9-1.2-4.3-1.9-.4-.2-.8-.3-1.1-.5h0c-51.8-21.8-107.3-33.6-163.4-34.8-3.6,0-7.2-.1-10.9-.1h-97.5c-7.6,0-15.1,1-22.4,3-.2,0-.3,0-.4.1-36.9,10.3-62.4,43.9-62.5,82.2v371c0,4.1,1.8,7.9,5,10.5,0,0,0,0,0,0,2.4,2,5.5,3.1,8.7,3.1h600.8c10.6,0,19.2-8.6,19.2-19.2,0-7.2-.2-14.3-.5-21.4Z"/>
  <path class="cls-7" d="M746.4,461.9c-1.8-40.7-9.2-80.9-22-119.5,0,0,0,0,0,0-2.8-8.5-5.8-16.9-9.1-25.2-1.2-3.1-2.5-6.2-3.8-9.4-10.3-24.4-22.7-47.8-37.1-70-5.1-7.9-10.5-15.6-16.1-23.2-13.2-17.7-27.7-34.5-43.3-50.1-6.4-6.4-12.9-12.6-19.6-18.5-1-.9-1.9-1.7-2.9-2.6-24.1-21.1-50.4-39.5-78.4-55-.4-.2-.8-.4-1.2-.7-5.7-3.1-11.5-6.1-17.3-9-.6-.3-1.2-.6-1.8-.9-5-2.4-10.1-4.8-15.2-7.1-.8-.4-1.6-.7-2.5-1.1,0,0,0,0,0,0-1.4-.6-2.9-1.2-4.3-1.9-.4-.2-.8-.3-1.1-.5h0c-51.8-21.8-107.3-33.6-163.4-34.8-3.6,0-7.2-.1-10.9-.1h-97.5c-7.6,0-15.1,1-22.4,3-.2,0-.3,0-.4.1-36.9,10.3-62.4,43.9-62.5,82.2v371c0,4.1,1.8,7.9,5,10.5,0,0,0,0,0,0,2.4,2,5.5,3.1,8.7,3.1h600.8c10.6,0,19.2-8.6,19.2-19.2,0-7.2-.2-14.3-.5-21.4Z"/>
  <path class="cls-3" d="M773.5,341.4c0,50.4-30,68-67,68-.9,0-1.7,0-2.6,0-1.7,0-3.4-.1-5.1-.2-7.8-.5-15.6-2.1-22.9-4.8-21.6-8.3-36.4-27.5-36.4-62.9,0-2.3.1-4.5.4-6.8,1.2-11.3,5.4-23.1,11.1-34.6,3.3-6.5,6.9-12.8,10.9-19,5.1-7.9,10.5-15.3,15.8-22,6.8-8.6,17.1-13.7,28-13.9.1,0,.2,0,.4,0,11.4-.2,22.1,5,29.1,13.9,18.1,23.1,38.2,54.7,38.2,82.3Z"/>
  <path class="cls-1" d="M521.9,507.7c0,33.3-7.6,66.2-22.3,96.2H125.5c-7.3,0-13.2-5.9-13.2-13.2v-187.1c57.5-105.8,189.8-145,295.6-87.5,70.2,38.2,113.9,111.7,113.9,191.6h0Z"/>
  <path class="cls-5" d="M745,473v112.2c0,10.3-8.4,18.7-18.7,18.7H124.7c-7.2,0-13.1-5.9-13.1-13.1h0c0-93.6,290.8-173.4,373.5-204.3,96.2-35.9,204.4,0,259.9,86.5h0Z"/>
  <circle class="cls-4" cx="652.3" cy="196" r="54.3" transform="translate(354.3 808.4) rotate(-80.8)"/>
  <path class="cls-3" d="M362.4,275.8c0,7.5-.3,14.7-.9,21.6-8.1,89.4-67.6,121.4-139.7,121.4s-3.6,0-5.4,0c-3.6,0-7.2-.2-10.7-.5-32.4-2.3-61.4-11.8-83.3-31.1-3.7-3.3-7.2-6.9-10.5-10.6-19.3-22.6-30.8-55.3-30.8-100.6,0-73.7,68-161.3,109.4-207.8,7.7-8.7,18.6-13.7,30.2-14h.4c12.2-.2,23.8,4.9,31.9,14,18.9,21.1,36.5,43.3,52.7,66.5,30.1,43.6,56.8,95.1,56.8,141.3Z"/>
  <polygon class="cls-5" points="216.6 407.2 268 338.3 216.4 414.7 216.3 422.7 215.1 490.5 214.7 515.4 200.5 515.4 201.5 497.4 205.6 422.2 211.1 320.6 211.1 319.8 211.2 319.6 211.2 318.8 211.7 310 160 233.4 211.9 302.8 212 304.9 216.2 228.1 174.3 153.1 171.9 148.9 174.7 153 216.7 214.6 217.4 191.7 218.5 150.1 220.6 73 221 73 220.6 150.1 220.4 181 247.7 150.1 264.5 131.2 250.6 150.1 220.2 191.8 219 260.5 260.2 194.5 218.9 270.6 218.2 308.8 277.9 217 222.6 314.1 218 322.2 216.6 407.2"/>
  <path class="cls-3" d="M591.7,227.2c0,6.3-.3,12.4-.8,18.1-6.8,71.4-54.5,96.9-112.3,96.9s-2.9,0-4.3,0c-2.9,0-5.8-.2-8.6-.4-8.5-.5-16.8-1.8-25.1-3.9-20.4-5.1-38.2-14.9-51.3-30.8-15-18.1-23.9-44.1-23.9-79.9s11-55.4,26.1-82.4c16.5-29.6,38-57.1,55.5-77.3,7.7-9,18.8-14.2,30.6-14.5h.4c12.3-.2,24.1,5.1,32.2,14.5,33.5,38.8,81.6,104.2,81.6,159.8Z"/>
  <polygon class="cls-5" points="474.5 335.5 515.8 281.7 474.4 341.4 474.2 347.6 473.8 374.5 473.5 392.7 473 419.9 461.5 419.9 462.9 396.1 464.7 364.7 465.6 347.2 470.1 267.9 470.1 267.3 470.1 267.2 470.6 259.7 429 199.8 470.7 254.1 470.8 255.7 474.2 195.7 469 186.8 469 186.8 438.5 133.9 474.6 185.2 477.6 78.6 478 78.6 477.5 158.9 513 120.1 477.4 167.4 477 190 476.5 221 492.2 196.6 509.5 169.5 494 197.4 476.3 228.9 475.8 258.8 511.3 205.8 523.8 187.1 512.5 206.4 475.6 269.2 474.5 335.5"/>
  <path class="cls-5" d="M704.2,405.2l24.5-32-24.5,35.5v3.7c0,0-.8,39.5-.8,39.5v3.5h-6.8l.7-11.9,1.8-31.3,2.6-47.1v-.4s0,0,0,0l.3-4.5-24.6-35.6,24.7,32.2v.9c0,0,2.1-35.6,2.1-35.6l-21.1-36.8,21.3,30.5,1.6-57c.1,0,.2,0,.4,0l-.2,41.4,21-23.1-21.1,28.1-.6,31.9,19.6-30.6-19.7,35.3-.3,17.7,28.4-42.6-28.5,48.8-.7,39.4Z"/>
  <path class="cls-3" d="M268.5,489.4c-3.4,5.4-7.7,5.3-11.7,2.8s-6-6.4-2.6-11.7,14.8-7.7,14.8-7.7c0,0,2.9,11.3-.5,16.7Z"/>
  <path class="cls-3" d="M145.5,486.3c4.5-4.5,8.7-3.4,12-.1s4.4,7.5,0,12-16.2,4.3-16.2,4.3c0,0-.3-11.7,4.2-16.2Z"/>
  <path class="cls-3" d="M520.2,401.5c5.7-2.8,9.3-.4,11.4,3.7s1.8,8.5-3.9,11.4-16.7-1.1-16.7-1.1c0,0,3.5-11.1,9.2-14Z"/>
  <path class="cls-3" d="M479.6,445.9c-5.2-3.6-4.9-8-2.2-11.8s6.6-5.7,11.8-2c5.2,3.6,7,15.2,7,15.2,0,0-11.4,2.3-16.7-1.3Z"/>
  <path class="cls-3" d="M405.5,350.5c3.7-1.5,5.9.2,7.1,2.9s.7,5.5-3,7-10.5-1.5-10.5-1.5c0,0,2.7-6.9,6.4-8.4Z"/>
  <path class="cls-3" d="M430.1,381.7c-3.8,1.2-5.9-.6-6.8-3.5s-.3-5.5,3.6-6.8,10.4,2.3,10.4,2.3c0,0-3.3,6.7-7.1,7.9Z"/>
  <path class="cls-3" d="M430.1,452.3c-3.4,5.4-7.7,5.3-11.7,2.8s-6-6.4-2.6-11.7,14.8-7.7,14.8-7.7c0,0,2.9,11.3-.5,16.7Z"/>
  <path class="cls-3" d="M205.4,535.2c5.3-3.5,9.2-1.6,11.8,2.3s2.8,8.2-2.5,11.8c-5.3,3.5-16.7,1-16.7,1,0,0,2-11.5,7.3-15Z"/>
  <path class="cls-7" d="M1192.8,555.1c0,158.9-72.1,284.2-161,287.6-115.8,4.5-267.2-111-161-287.6,81.9-136.1,72.1-287.6,161-287.6s161,128.8,161,287.6Z"/>
  <path class="cls-3" d="M1212.9,530.7c-11.9,14.8-28.2,32.4-45.8,43.9-8.4,5.5-17.1,9.6-25.9,11.5-45.8,9.6-67.5-14.3-74.6-48-.2-.8-.3-1.6-.5-2.3-.3-1.6-.6-3.1-.8-4.7-4.2-30.8,7.7-57.9,50.3-66.8,13.2-2.8,28.5-.7,43.6,3.7,15.9,4.6,31.6,11.7,44.3,18.4,7.6,3.9,13.1,11,15,19.4,0,0,0,.2,0,.3,1.9,8.7-.2,17.8-5.8,24.7Z"/>
  <path class="cls-5" d="M1166.2,516.6l-26.7,5.1,27.6,9.6,5.9,2-5.8-1.6-32.2-9.1-17.3,3.3,46.8,17.2-52.9-16-38.5,7.4,35.8,15.8-39.2-15.1-3.6.7-16,3.1h0s-17,3.3-17,3.3l-6.5,1.2-2.6.5-1.3-6.2,2.6-.4,5.4-.8,19.6-3,15-2.3,46.4-7.2h.4c0,0,0,0,0,0l4.4-.7,29.9-29.6-26.7,29-.9.2,35-5.4,11.5-9.6,20.3-17-20,19.9-5.7,5.7,6.1-1.1,52.5-9.5c0,0,0,.2,0,.3l-43.1,8.7,26.4,14.4-31.3-13.4-4.4.9Z"/>
  <path class="cls-6" d="M1055.7,417.8s0,0,0,0c-.4-1.5-1.1-2.8-2.1-4-1.7-2-4.2-3.2-6.8-3.3-.1,0-.2,0-.3,0-1,0-2,.1-3,.4-3.6,1.1-6.3,4.3-6.7,8.1l-.6,11.6-1.7,35.2-.2,4.6-2.7,56.8c-2.9,2.5-4.4,6.2-4.1,10,.2,1.9.8,3.8,1.8,5.4,1.2,1.9,2.8,3.4,4.8,4.4,1.7.8,3.5,1.3,5.4,1.3,5,0,9.5-3.2,11.3-7.9,0,0,0-.2,0-.2h0c.7-2.1.8-4.4.3-6.6-.2-.9-.5-1.8-.9-2.6-.3-.5-.6-1-.9-1.5l3.7-61.1,2.2-36.8.6-9.7v-.4c0-.5.1-1,0-1.5,0,0,0,0,0,0,0-.6-.1-1.3-.3-1.9Z"/>
  <path class="cls-1" d="M1056.5,426.6c0-1.2-.1-2.5-.4-3.7,0-.4-.2-.8-.3-1.2-1.4-4.8-4.6-8.9-9.1-11.2-3.6-1.9-7.9-2.6-11.9-1.9-11.6,2.1-18.5,6-20.5,11.5-1.4,3.9-.7,9.1,1.1,14.6h0c1.6,4.6,3.6,9.1,6,13.4.4.8.9,1.6,1.3,2.4,3,5.2,6.2,10.2,9.7,15v.2c.1,0,2,.3,2,.3l2.4.3,16,2.1h1c0,.1,0-.3,0-.3,1.8-13.7,2.6-27.6,2.4-41.4Z"/>
  <ellipse class="cls-5" cx="986.3" cy="836.5" rx="143.4" ry="15.3"/>
  <polygon class="cls-6" points="976 814.2 960.8 814.2 953.5 755.5 976 755.6 976 814.2"/>
  <path class="cls-1" d="M983.7,838.2l-1.4-17.1-1.2-14.4-5.2-.3-16.3-1-2.6-.2v10.3l-8.8,6.1-4.7,3.2-9.4,6.5c-2.9,2-3.7,6-1.6,9,1.2,1.7,3.2,2.8,5.3,2.8h28.6l4-8.3.9-1.9.4,2.3h0s1.5,7.9,1.5,7.9h10.8l-.4-4.9Z"/>
  <polygon class="cls-6" points="1045.9 802.2 1031.7 807.6 1004.1 755.3 1025.1 747.3 1045.9 802.2"/>
  <path class="cls-1" d="M1062.4,823.5l-14.4-30.1-4.9,1.5-15.6,4.9-2.5.8,3.7,9.6-15.8,22.9c-2,2.9-1.3,6.9,1.6,9,.4.3.8.5,1.3.7,1.3.5,2.8.6,4.2.2h0c.1,0,.3,0,.4-.1l26.8-10.1.9-9.9v-1.4c.1,0,1,1.4,1,1.4l4.5,7.4,10.1-3.8-1.3-2.8Z"/>
  <path class="cls-3" d="M1076,706.5c.6,5.7-2.6,8-6.8,8.4s-7.8-1.2-8.3-6.9,6.3-13.7,6.3-13.7c0,0,8.3,6.5,8.8,12.2Z"/>
  <path class="cls-3" d="M1045.3,635.2c-3,4.8-7,4.7-10.5,2.5s-5.4-5.7-2.3-10.6,13.3-7,13.3-7c0,0,2.6,10.2-.5,15.1Z"/>
  <path class="cls-1" d="M1006.8,659.6s66.6,104.9,59.2,109.6-67.1,23.1-72.4,19.4c-5.3-3.7-9.7-124.3-9.7-124.3l22.9-4.7Z"/>
  <path class="cls-1" d="M966.2,497.7c9.8.4,50,6.2,49.1,7.7-.9,1.3-1.9,2.6-2.9,3.8,0,0,2,9.3,1.1,10.2s17.4,21.9,6.7,66.9c-10.7,45-9.5,76.1-9.5,76.1,0,0,4.3,131.9-8,134.6-12.3,2.7-60.9.9-63.2-4.3s7-167,7-167c0,0,1-81.3,3.4-91.3s10.2-36.8,16.2-36.7Z"/>
  <circle class="cls-6" cx="1017" cy="352.8" r="30.6"/>
  <path class="cls-5" d="M1044.2,397.1c4.3,4.3,23,22.1,2.7,53.6-20.3,31.5-33.3,54.4-33.3,54.4l-50.6-6,7.8-30.8s-3.8-24.3,9.2-36.3c13-12.1,27.2-31.9,27.2-31.9l7.3-1.3s25.4-6,29.8-1.7Z"/>
  <path class="cls-6" d="M1028.9,442.6s-71.4,55-76,35.7c-3-12.6.5-59.7,2.5-79.9l14.4.2s-3.1,44.4,3.1,49.4c0,0,22.1-21.3,26.7-21s29.4,15.6,29.4,15.6Z"/>
  <path class="cls-1" d="M1044.2,408.3s-9.7,45-38.3,52.4l-33.4-13.5s42.4-45.2,57-45.7,14.6,6.9,14.6,6.9Z"/>
  <circle class="cls-6" cx="963.5" cy="394" r="11.7"/>
  <path class="cls-4" d="M1498.8,175.7c0-8.4-.2-16.9-2.1-25.1s-5.9-16-12.3-20.9c-6.4-4.8-15.6-6-22.2-1.5-4.9-6.3-13.4-8.8-21-7.1s-14,7.1-18.5,13.8-7.2,14.6-9,22.6c-.6,2.8-.9,6.5,1.4,8.1,1.8,1.3,4.2.5,6.2-.3,5.5-2.2,11-4.4,16.6-6.7,5.6,7.6,13.6,14.6,12.5,24.2-1.1,9.6-7.5,19.8-10.9,28.8,4.7-1.7,9.5-3.4,14.2-5.1,1.5-2.5,5.3-6.5,5-9.5,1,2.2,1.8,4.5,2.1,6.9,0,0,0,0,0,0l26.4-9.5c3.1-1.1,6.4-2.4,8.6-5.1,3-3.7,3.1-9,3-13.8Z"/>
  <text class="cls-8" transform="translate(1442 75.8)"><tspan x="0" y="0">(26, 177, 207)</tspan></text>
  <text class="cls-8" transform="translate(1445.3 55.5)"><tspan x="0" y="0">(121, 5, 102)</tspan></text>
  <text class="cls-8" transform="translate(1440.9 32.1)"><tspan x="0" y="0">(168, 32, 156)</tspan></text>
  <rect class="cls-9" x="112.3" y="6.7" width="633.4" height="597.7" rx="20.9" ry="20.9"/>
  <path class="cls-6" d="M1007.9,398.8c-.6.7-1.2,1.5-1,2.4.4,1.2,2.4,1.6,4.1,1.7,10.3.7,20.7-.6,30.2-3.7.5-.1.9-.3,1.2-.6,1.2-1,.2-2.5-.8-3.6-4.2-5-6.1-11.1-5.3-17,.1-.7.2-1.5-.3-2.1-.6-.8-1.9-.9-3.1-1-5.7-.3-17.7,1-19.7,5.7-1.1,2.5.1,6.4-.6,9.1s-2.5,6.3-4.7,9.1Z"/>
  <path class="cls-2" d="M1032.8,369.7c3.2,1.2,4.1,5.1,4.6,8.5,4-2.8,8.1-5.7,10.3-10,2-3.8,2.1-8.3,2.1-12.6,0-4.4-.3-8.8-1.9-12.9-1.7-4.4-5-8.1-8.1-11.7-1.5-1.7-3-3.4-4.8-4.7-2.2-1.6-4.7-2.6-7.3-3.4-8.2-2.5-17.5-3-25.3.7-4.5,2.1-8.3,5.4-11.7,9-1,1.1-2,2.2-2.3,3.6s.3,3.2,1.7,3.5c5.8,10,15.5,17.4,26.9,19.1.5,0,1.1.1,1.5-.3.3-.4.2-1,.2-1.6,0-2.1,2.8-3.6,4.4-2.3,1.3,1,1.5,3,1.2,4.6s-.8,3.4-.5,5c.4,1.8,1.9,3.3,3.7,4s3.5.7,5.3,1.3Z"/>
  <path class="cls-2" d="M1030.8,318.7c.5-.3,1.1-.3,1.7-.4,1.3-.3,2.4-1.1,3.7-1.4,1.3-.3,2.7-.2,4-.1,1.5.1,3.1.3,4.6.4,2.3.2,4.7.4,6.9,1.4,3.5,1.6,5.9,5.4,5.9,9.3,0,1.9-.5,3.9.2,5.7.3.9,1,1.6,1.4,2.4.4.8.5,1.7.5,2.6.1,3.8-1.8,7.8-5.2,9.6s-8.2.7-10.1-2.6c-.9-1.6-1.2-3.4-1.8-5.1-.8-2.2-2.2-4.2-3.6-6.1-2.3-3.3-4.6-6.4-7.3-9.3s-4-4.6-.8-6.2Z"/>
  <path class="cls-2" d="M1054.3,332.1c3.4-1.5,6.3-4,8.1-7.2-.5,2.2-1.2,4.4-2.8,6s-4,2.5-6.1,1.6c0-.4.3-.8.8-1"/>
  <path class="cls-2" d="M1064.6,331c-.3,1.6-1.7,2.9-3.3,3.4-2.2.6-5.1.2-6.8-1.3,1.3-.8,9.8-.2,10.2-2.1Z"/>
</svg>